<svg xmlns="http://www.w3.org/2000/svg" width="272.993" height="273.038" viewBox="0 0 272.993 273.038">
  <defs>
    <style>
      .cls-1, .cls-2 {
        fill: #fff;
      }

      .cls-2 {
        fill-rule: evenodd;
      }
    </style>
  </defs>
  <g id="Layer_2" data-name="Layer 2" transform="translate(0.023)">
    <g id="Layer_1" data-name="Layer 1">
      <path id="Path_1" data-name="Path 1" class="cls-1" d="M62.51,100.43c0-3.55-.35-6-1-7.4a4.54,4.54,0,0,0-3.05-2.55,82.618,82.618,0,0,0-8.66-1V84.91q10.26.35,30.73.35,19.68,0,29.58-.35h8.07c2.58,0,3.87,1.64,3.87,5V92a146.119,146.119,0,0,0-.67,16.52h-4.23c-.24-3.23-.5-5.93-.82-8.19a17.79,17.79,0,0,0-2-6.25q-8.23-2.86-22.19-2.85c-4.81,0-9.74.26-14.82.76-.44,5.17-.67,9.24-.67,12.3v26q0,3.17,3.87,3.17c.59,0,1.58-.06,3-.18s2.41-.18,2.91-.18h6a61.842,61.842,0,0,0,11.96-1.1c2.26-.47,3.76-1.47,4.52-3a13.38,13.38,0,0,0,1.17-6.1v-3.17H115c-.23,2.82-.35,7.16-.35,13.09q0,7.48.7,21.45h-4.58q-.225-2.16-.5-5.72a17.07,17.07,0,0,0-.91-5.08,4.85,4.85,0,0,0-2.67-2.41,19.63,19.63,0,0,0-6.49-1.17,197.791,197.791,0,0,0-20.2-.75q-3.43,0-3.43,3.17v27.15a54.84,54.84,0,0,0,.47,8.54A7.1,7.1,0,0,0,79,182.14a7.82,7.82,0,0,0,4.2,1.76c1.88.26,4.61.5,8.22.67v4.58q-14.09-.7-21.83-.7-7,0-21.83.7v-4.58c4.7-.12,8.07-.5,10.07-1.17a5.57,5.57,0,0,0,3.87-3.73c.56-1.82.85-5.14.85-9.89V100.43Z"/>
      <path id="Path_2" data-name="Path 2" class="cls-1" d="M174.29,189.85c-.94-3.2-2.05-6.6-3.4-10.15s-2.7-7-4-10.24l-26.74-68.7c-1.73-4.67-3.2-7.6-4.43-8.83s-4.11-1.94-8.57-2.11V85.26q11.89.7,17.55.7c2.23,0,5.69-.12,10.42-.35s8.16-.35,10.39-.35v4.9h-4.55c-4,0-6.19.82-6.72,2.49a3,3,0,0,0-.32,1.73q0,3.08,3.87,13.76l24,61.66L205,111c3.05-7.34,4.55-12.38,4.55-15.14a4.86,4.86,0,0,0-1-3.52A7.9,7.9,0,0,0,205.63,91a25.252,25.252,0,0,0-4.17-.56c-1.61-.09-3-.18-4.23-.29v-4.9c1.5,0,3.7.06,6.63.18s5.17.18,6.72.18c2,0,5.08-.06,9.19-.18s7.19-.18,9.13-.18v4.9h-2.05c-2.58,0-4.37.47-5.34,1.38a12.19,12.19,0,0,0-2.41,3.58,60.675,60.675,0,0,0-2.55,5.75c-.82,2.14-1.53,4-2.08,5.46l-25,61.69c-1.26,3.14-2.11,5.28-2.58,6.4s-1,2.58-1.7,4.37-1.38,3.64-2,5.52-1.29,3.7-1.85,5.55Z"/>
      <path id="Path_3" data-name="Path 3" class="cls-2" d="M136.5,0A136.47,136.47,0,0,1,256.64,71.65l-16.41,6.77a118.86,118.86,0,1,0-.75,117.49l16.42,6.77A136.51,136.51,0,1,1,136.5,0Z"/>
      <path id="Path_4" data-name="Path 4" class="cls-1" d="M243,82.11l.45,1,.91-.41.09.2a3.06,3.06,0,0,0,.81,1.27q.47.22,3.39-1.1l7.72-3.49q1.71-.765,1.83-1.2a1.26,1.26,0,0,0,0-.52,4.183,4.183,0,0,0-.2-.63l-.19-.5.85-.38q1.14,2.78,1.75,4.13.49,1.08,1.53,3.25c.69,1.45,1.2,2.53,1.53,3.25l-.17.45c-1.1.38-2.18.81-3.23,1.28l-.39-.86c.78-.42,1.37-.77,1.78-1a12.811,12.811,0,0,0-1-3.08c-.37-.81-.65-1.4-.87-1.79l-.7.29-.72.3-4,1.82a3.888,3.888,0,0,0,.23.58c.12.3.21.54.29.7a13.167,13.167,0,0,0,.66,1.28,6.522,6.522,0,0,0,.64.93.64.64,0,0,0,.51.1,4.17,4.17,0,0,0,.72-.21l.52-.19.39.87-1.21.51-1.27.54-1.19.57-1.21.58-.41-.91s0-.07.12-.12l.31-.14a4.64,4.64,0,0,0,.86-.48.66.66,0,0,0,.3-.6,10,10,0,0,0-.74-2.16l-.61-1.35-4.49,2a11.729,11.729,0,0,0-1.1.59.93.93,0,0,0-.41.45,1,1,0,0,0,0,.59,8.243,8.243,0,0,0,.43,1.09l.12.26-.91.41c-.35-.86-.91-2.15-1.68-3.85q-1-2.22-2-4.31Zm7.38,18.09.54-.15a5.81,5.81,0,0,0,1,.92c.9-.18,1.49-.3,1.78-.38l9.78-2.79,1.38-.45a1,1,0,0,0,.45-.3.9.9,0,0,0,.12-.58,8.707,8.707,0,0,0-.22-1.25l1-.27q.24.82.68,2.48c.3,1.1.53,1.93.68,2.49.22.76.39,1.38.54,1.85l.42,1.42.46,1.57c.17.57.36,1.24.58,2l-.25.37c-1.46.26-2.54.5-3.24.7l-.26-.91a11.469,11.469,0,0,0,1.81-.69,10.06,10.06,0,0,0-.49-3.14l-.68-2.39a22.865,22.865,0,0,0-2.48.6l-3.29.94c0,.12.11.4.21.84s.19.78.26,1a9.61,9.61,0,0,0,.72,1.93.82.82,0,0,0,.54.33,2.13,2.13,0,0,0,.68,0l.85-.16.24.84-1.45.39-1.43.38-1.16.36-1.18.36-.24-.84.74-.33a2,2,0,0,0,.64-.4.84.84,0,0,0,.28-.56,5,5,0,0,0-.18-1.27c-.14-.57-.31-1.24-.54-2l-.15-.53-6.43,1.84.56,2a14.7,14.7,0,0,0,1.26,3.38q.33.435,2.55.09l.27.95a33.459,33.459,0,0,0-4,.85c-.24-.7-.55-1.72-.93-3.07L251.48,104c-.47-1.66-.85-2.9-1.12-3.71Zm4.52,16.15.12,1.49,1-.07v.61c0,.57.17.9.4,1a18.33,18.33,0,0,0,4.6-.07l6.07-.46h1.41a4,4,0,0,0,2-.42,1,1,0,0,0,.21-.48,3.5,3.5,0,0,0,0-.69v-.57l.94-.07c0,1.32.07,2.35.13,3.09a3.444,3.444,0,0,0,.1.9,4.716,4.716,0,0,1,.1.91,14.106,14.106,0,0,0,.15,1.68c.07.75.13,1.31.15,1.68l.09,1.21a4.92,4.92,0,0,1-.85,3.4,3.24,3.24,0,0,1-2.2,1,4,4,0,0,1-2.25-.44,4.45,4.45,0,0,1-1.33-1.09,17.069,17.069,0,0,1-1.21-1.76l-5.34,4.12-1,.7a3,3,0,0,0-.74.75,1.6,1.6,0,0,0-.21,1l-1,.07a9.868,9.868,0,0,0-.07-1.27c-.07-.58,0-1-.07-1.27q-.09-1.1-.19-1.7l6.22-4.74c.47-.36,1-.87,1.73-1.53l.44.13a4,4,0,0,0,1.28,2.85,3.26,3.26,0,0,0,1.17.64,3.55,3.55,0,0,0,1.33.15,2.16,2.16,0,0,0,.93-.23,3.06,3.06,0,0,0,1.8-3.42,2.042,2.042,0,0,0-.08-.66,2.146,2.146,0,0,1-.08-.6,18.953,18.953,0,0,0-2.25.07l-9.87.75a4.62,4.62,0,0,0-1.25.23,1,1,0,0,0-.59.61,3.319,3.319,0,0,0-.09,1.3l-1,.08q0-1.11-.2-3.36-.2-2.64-.47-5.46Zm.62,32.92.13-1.71,8.87-2.92q1.12-.31,3.82-1.2a16.428,16.428,0,0,0,3.12-1.21,1.11,1.11,0,0,0,.31-.43,2.628,2.628,0,0,0,.16-.53,5.965,5.965,0,0,1,.1-.66l.94.07q-.13,1-.28,3c0,.53-.09,1.31-.15,2.35s-.11,1.82-.15,2.34l-.94-.07a6.05,6.05,0,0,0,0-1.44.54.54,0,0,0-.56-.48,3.221,3.221,0,0,0-.84.15l-10.56,3.24,7.64,3.75,1,.49c.45.22.86.39,1.21.52a3.3,3.3,0,0,0,.92.23h.11c.37,0,.58-.42.66-1.33v-.55l.94.07q-.12.88-.26,2.75c-.09,1.21-.14,2.13-.16,2.77l-.94-.07v-.82a1.12,1.12,0,0,0-.13-.36,1.61,1.61,0,0,0-.53-.55,5.571,5.571,0,0,0-.77-.45l-.81-.43q-2.14-1.11-3.75-1.93l-3-1.49-3-1.47-3.21-1.59Zm-1.65,12.26-.34,1.46,1,.22a5.859,5.859,0,0,0-.17,1.35.74.74,0,0,0,.3.61,3.721,3.721,0,0,0,1,.34l11,2.54a4,4,0,0,0,1.17.15.72.72,0,0,0,.57-.39,4.861,4.861,0,0,0,.43-1.3l.91.21c-.37,1.27-.63,2.24-.79,2.94-.22,1-.52,2.43-.9,4.39l-.92-.21a2.9,2.9,0,0,0,.07-1.41,1.11,1.11,0,0,0-.6-.7,6.84,6.84,0,0,0-1.38-.43l-9.59-2.2a6.09,6.09,0,0,0-1.35-.2,1.25,1.25,0,0,0-.87.37,2.65,2.65,0,0,0-.61,1.28l-1-.22q.34-1.23.91-3.71t1.11-5.08Zm-3.92,15,.51.2a10.468,10.468,0,0,0,.31,1.18q1.23.6,1.65.78l10,3.93a3.4,3.4,0,0,0,1.11.29.76.76,0,0,0,.6-.3,6.871,6.871,0,0,0,.67-1.21l.93.36c-.5,1.08-.87,1.93-1.11,2.54-.05.13-.12.32-.2.58s-.15.45-.2.58c-.15.38-.39,1.06-.75,2.06s-.63,1.77-.85,2.31a21.539,21.539,0,0,1-2,4.13,6.61,6.61,0,0,1-1.78,1.68,6.2,6.2,0,0,1-2.27.89,5.93,5.93,0,0,1-2.45-.07,10.732,10.732,0,0,1-1.81-.52,9.77,9.77,0,0,1-4.57-3.46,7.54,7.54,0,0,1-1.26-3.37,10.71,10.71,0,0,1,.21-3.54,26.841,26.841,0,0,1,1.19-3.79c.07-.18.18-.44.34-.79s.27-.61.34-.78l.44-1.13c.1-.27.26-.69.46-1.27s.36-1,.47-1.27Zm2.21,5.73-1.24-.46-1.24-.46a12.469,12.469,0,0,0-.91,1.84,6.92,6.92,0,0,0-.15,5.45q1,2.38,4.56,3.76t5.36.24a7.44,7.44,0,0,0,3.14-4,17.156,17.156,0,0,0,.74-2.21q-1.1-.54-1.71-.78l-8.54-3.35Z"/>
    </g>
  </g>
</svg>
