<svg xmlns="http://www.w3.org/2000/svg" viewBox="0 0 126.93 24.98"><defs><style>.cls-1{fill:#fefefe;}</style></defs><title>fervid_text_logo</title><g id="Layer_2" data-name="Layer 2"><g id="Layer_1-2" data-name="Layer 1"><g id="Layer_1-3" data-name="Layer_1"><g id="_2196363161088" data-name=" 2196363161088"><path class="cls-1" d="M1.78,1.87A2.24,2.24,0,0,0,1.65,1,.55.55,0,0,0,1.29.67a10,10,0,0,0-1-.12V0Q1.48,0,3.94,0T7.49,0h1c.31,0,.47.2.47.6V.85a17.45,17.45,0,0,0-.08,2H8.34c0-.39-.06-.71-.1-1A2.13,2.13,0,0,0,8,1.1,8.35,8.35,0,0,0,5.33.76q-.87,0-1.78.09C3.5,1.47,3.47,2,3.47,2.33V5.46c0,.25.16.38.47.38l.36,0,.35,0h.73a7.46,7.46,0,0,0,1.43-.13.72.72,0,0,0,.54-.36,1.61,1.61,0,0,0,.14-.73V4.19h.59c0,.34,0,.86,0,1.57s0,1.46.08,2.58H7.58c0-.17,0-.4-.06-.69A2,2,0,0,0,7.41,7a.58.58,0,0,0-.32-.29,2.35,2.35,0,0,0-.78-.14,23.86,23.86,0,0,0-2.42-.09q-.41,0-.41.38v3.26a6.67,6.67,0,0,0,.06,1,.85.85,0,0,0,.23.5.94.94,0,0,0,.5.21c.23,0,.55.06,1,.08v.55q-1.69-.08-2.62-.08T0,12.53V12a4.56,4.56,0,0,0,1.21-.14.67.67,0,0,0,.47-.45,4.68,4.68,0,0,0,.1-1.19V1.87ZM23.18,12.53V12a1.28,1.28,0,0,0,.74-.51,1.79,1.79,0,0,0,.19-.89V1.78A1.89,1.89,0,0,0,24,1a.6.6,0,0,0-.42-.31,5.55,5.55,0,0,0-1-.09V0q2.38.08,3.6.08,1.56,0,4.7-.08c.51,0,.77.12.77.37a7.42,7.42,0,0,1-.08,1V2.84h-.52C31,2.35,31,2,31,1.78a2.13,2.13,0,0,0-.23-.68A6.07,6.07,0,0,0,29.45.84a15.65,15.65,0,0,0-1.7-.08,18,18,0,0,0-1.87.09c-.05.62-.08,1.11-.08,1.48v3q0,.47.51.47l.36,0,.4,0,.37,0,.35,0a9.5,9.5,0,0,0,1.48-.18c.31-.05.5-.17.57-.34A2,2,0,0,0,30,4.49V4.31a.34.34,0,0,1,0-.08.29.29,0,0,0,0-.08h.55c0,.42,0,1.09,0,2s0,1.58,0,2H30c0-.5,0-.83-.06-1a.65.65,0,0,0-.28-.43,1.76,1.76,0,0,0-.85-.22q-.67,0-2,0h-.64a.48.48,0,0,0-.29.07.44.44,0,0,0-.08.32v4.82h3.38a5.82,5.82,0,0,0,1.54-.13.76.76,0,0,0,.52-.5,12.13,12.13,0,0,0,.27-1.61h.56c0,.3,0,.72-.1,1.28s-.08,1-.08,1.39a1.22,1.22,0,0,0,0,.19,1.36,1.36,0,0,1,0,.15c-1,.05-1.76.08-2.25.08l-1.14,0-1.15,0-.74,0-.73,0c-.65,0-1.56,0-2.75.08Zm21.58,0h.93v-.59a7,7,0,0,0,1.12-.16.52.52,0,0,0,.37-.38,5.72,5.72,0,0,0,.08-1.2V1.61a1.67,1.67,0,0,0-.09-.67.46.46,0,0,0-.33-.23A9.16,9.16,0,0,0,45.77.6V0l1.13,0L48,.09h.73C49.53,0,50.29,0,51,0a4.83,4.83,0,0,1,3.09.72,2,2,0,0,1,.6.85,3,3,0,0,1,.21,1.11,3,3,0,0,1-.26,1.27,4.32,4.32,0,0,1-2.79,2.2L55,10.24l.58.85a3.16,3.16,0,0,0,.57.62,1.14,1.14,0,0,0,.75.26v.55a8.12,8.12,0,0,0-2.29,0q-.89-1.26-1.52-2.12l-2-2.67-.78-1a3,3,0,0,0-.61-.61V5.8a4.52,4.52,0,0,0,1.71-.32,3,3,0,0,0,1.28-1,2.58,2.58,0,0,0,.48-1.59,2.08,2.08,0,0,0-.38-1.29,2,2,0,0,0-1-.7A4,4,0,0,0,50.52.72,6,6,0,0,0,49,.93c0,.29,0,.61,0,1s0,.64,0,.86v7.41A7.21,7.21,0,0,0,49,11.41a.57.57,0,0,0,.39.42,4.5,4.5,0,0,0,1.19.1v.59c-.54,0-1.35,0-2.45,0s-2.21,0-3.39,0ZM76,12.61c-.11-.38-.25-.79-.41-1.22s-.32-.84-.48-1.23L71.92,1.9A3.37,3.37,0,0,0,71.39.84a1.67,1.67,0,0,0-1-.25V0q1.43.08,2.11.08l1.25,0L75,0V.63h-.55c-.48,0-.74.1-.81.3a.35.35,0,0,0,0,.21A6.76,6.76,0,0,0,74,2.79l2.88,7.41,2.79-7.07a5.89,5.89,0,0,0,.55-1.82.59.59,0,0,0-.12-.42.94.94,0,0,0-.35-.15,3.06,3.06,0,0,0-.5-.07l-.51,0V0l.8,0,.81,0,1.1,0,1.1,0V.63h-.25A1,1,0,0,0,81.7.8a1.46,1.46,0,0,0-.29.43,7.22,7.22,0,0,0-.31.69l-.25.66-3,7.41-.31.77-.2.53c-.08.22-.17.44-.24.66s-.15.44-.22.67H76Zm22.73-2.45a3.69,3.69,0,0,0,.12,1.1.81.81,0,0,0,.47.51,3.49,3.49,0,0,0,1.1.21v.55c-1.06-.06-1.89-.08-2.49-.08s-1.4,0-2.58.08V12a5.25,5.25,0,0,0,1.21-.17.6.6,0,0,0,.41-.42,5.67,5.67,0,0,0,.08-1.19V2.11a3.17,3.17,0,0,0-.11-1,.58.58,0,0,0-.42-.37A7,7,0,0,0,95.37.59V0l1.21,0,1.2,0,1.31,0,1.35,0V.59a5,5,0,0,0-1.16.12.61.61,0,0,0-.43.43,5.13,5.13,0,0,0-.09,1.18v7.83Zm15.82,2.37v-.46a1.56,1.56,0,0,0,.77-.59,3.56,3.56,0,0,0,.17-1.19V1.91a2.54,2.54,0,0,0-.11-.9.55.55,0,0,0-.4-.33,4.45,4.45,0,0,0-1-.08V0l1.23,0,1.22,0h.85Q119.14,0,120.17,0a11.94,11.94,0,0,1,2.16.17,6.13,6.13,0,0,1,2.48,1.06,5,5,0,0,1,1.59,1.91,5.57,5.57,0,0,1,.54,2.44,7.35,7.35,0,0,1-.34,2.12,7.22,7.22,0,0,1-.68,1.55,6.55,6.55,0,0,1-3.93,3,13.61,13.61,0,0,1-2.67.26l-.67,0-.64,0h-1.27q-1.43,0-2.16,0Zm2.62-2.24q0,.85,0,1.27a11.68,11.68,0,0,0,2.07.21,7.19,7.19,0,0,0,2.26-.34,4.87,4.87,0,0,0,1.82-1,4.73,4.73,0,0,0,1.2-1.81A7,7,0,0,0,125,6q0-5.25-5.59-5.25-.58,0-2.2.18c0,.33,0,.86,0,1.56v7.79Z"/><path class="cls-1" d="M10,23.85V20h1.32a3.2,3.2,0,0,1,.68.05,1.31,1.31,0,0,1,.56.28A1.56,1.56,0,0,1,13,21a2.57,2.57,0,0,1,.15.91,2.68,2.68,0,0,1-.1.77,1.88,1.88,0,0,1-.26.56,1.38,1.38,0,0,1-.35.35,1.42,1.42,0,0,1-.46.19,2.6,2.6,0,0,1-.62.07H10Zm.51-.45h.82a2,2,0,0,0,.59-.07.85.85,0,0,0,.34-.2,1.22,1.22,0,0,0,.28-.49,2.38,2.38,0,0,0,.1-.74,1.79,1.79,0,0,0-.2-.93,1,1,0,0,0-.48-.43,2,2,0,0,0-.66-.08h-.8V23.4Zm5.37.45V20h2.77v.45H16.4v1.18h2.11v.45H16.4V23.4h2.35v.45H15.89Zm5.4-1.23.48,0a1.06,1.06,0,0,0,.16.47.88.88,0,0,0,.39.3,1.45,1.45,0,0,0,.59.11,1.4,1.4,0,0,0,.51-.09.71.71,0,0,0,.33-.24.56.56,0,0,0,.11-.33.5.5,0,0,0-.1-.31.79.79,0,0,0-.35-.23c-.1,0-.33-.1-.68-.19a3.51,3.51,0,0,1-.74-.24,1,1,0,0,1-.41-.36.87.87,0,0,1-.13-.48,1,1,0,0,1,.17-.54,1,1,0,0,1,.48-.38,1.83,1.83,0,0,1,.7-.13,1.91,1.91,0,0,1,.75.14,1.08,1.08,0,0,1,.5.4,1.16,1.16,0,0,1,.19.6l-.49,0a.78.78,0,0,0-.26-.55,1,1,0,0,0-.67-.19,1.07,1.07,0,0,0-.67.17.51.51,0,0,0-.21.41.44.44,0,0,0,.15.34,2,2,0,0,0,.76.27,5.07,5.07,0,0,1,.85.24,1.17,1.17,0,0,1,.49.39,1,1,0,0,1,.16.54,1,1,0,0,1-.17.58,1.15,1.15,0,0,1-.5.42,1.75,1.75,0,0,1-.74.15,2.19,2.19,0,0,1-.87-.15,1.21,1.21,0,0,1-.55-.46,1.29,1.29,0,0,1-.21-.69Zm5.83,1.23V20h.51v3.83Zm5.2-1.5V21.9h1.62v1.42a2.86,2.86,0,0,1-.77.45,2.29,2.29,0,0,1-.82.15,2.17,2.17,0,0,1-1-.24,1.6,1.6,0,0,1-.7-.7,2.2,2.2,0,0,1-.24-1,2.38,2.38,0,0,1,.23-1,1.55,1.55,0,0,1,.67-.72,2.1,2.1,0,0,1,1-.24,2,2,0,0,1,.75.13,1.25,1.25,0,0,1,.53.37,1.67,1.67,0,0,1,.29.63l-.46.12a1.46,1.46,0,0,0-.21-.46.88.88,0,0,0-.37-.27,1.34,1.34,0,0,0-.53-.1,1.57,1.57,0,0,0-.6.11,1.12,1.12,0,0,0-.41.28,1.33,1.33,0,0,0-.24.38,2,2,0,0,0-.15.77,1.9,1.9,0,0,0,.18.86,1.13,1.13,0,0,0,.51.51,1.59,1.59,0,0,0,.72.17,1.69,1.69,0,0,0,.64-.13,1.63,1.63,0,0,0,.47-.27v-.72H32.32Zm4.37,1.5V20h.52l2,3V20h.49v3.83h-.52l-2-3v3ZM44.13,25V20h.41v5Zm4.79-1.12V20h.76l.91,2.71.18.57.21-.61L51.9,20h.68v3.83h-.49V20.64L51,23.85h-.46l-1.11-3.27v3.27h-.49Zm6.06,0L56.45,20H57l1.56,3.83H58l-.44-1.16H55.93l-.42,1.16H55Zm1.1-1.57h1.31L57,21.21q-.18-.48-.28-.8a5.38,5.38,0,0,1-.21.74l-.42,1.13ZM61,23.85V20h.52l2,3V20H64v3.83h-.52l-2-3v3Zm5.46,0L67.9,20h.56L70,23.85h-.58L69,22.69H67.38L67,23.85Zm1.1-1.57h1.31l-.4-1.06c-.12-.32-.21-.59-.27-.8a5.38,5.38,0,0,1-.21.74l-.42,1.13Zm6.69.07V21.9h1.62v1.42a2.86,2.86,0,0,1-.77.45,2.29,2.29,0,0,1-.82.15,2.17,2.17,0,0,1-1-.24,1.6,1.6,0,0,1-.7-.7,2.2,2.2,0,0,1-.24-1,2.38,2.38,0,0,1,.23-1,1.55,1.55,0,0,1,.67-.72,2.1,2.1,0,0,1,1-.24,2,2,0,0,1,.75.13,1.25,1.25,0,0,1,.53.37,1.66,1.66,0,0,1,.29.63l-.46.12a1.46,1.46,0,0,0-.21-.46.88.88,0,0,0-.37-.27,1.34,1.34,0,0,0-.53-.1,1.57,1.57,0,0,0-.6.11,1.12,1.12,0,0,0-.41.28,1.33,1.33,0,0,0-.24.38,2,2,0,0,0-.15.77,1.9,1.9,0,0,0,.18.86,1.14,1.14,0,0,0,.51.51,1.59,1.59,0,0,0,.72.17,1.69,1.69,0,0,0,.64-.13,1.63,1.63,0,0,0,.47-.27v-.72H74.22Zm4.39,1.5V20h2.77v.45H79.11v1.18h2.12v.45H79.11V23.4h2.35v.45H78.6ZM85.73,25V20h.41v5Zm4.78-1.12V20H92a1.78,1.78,0,0,1,.7.12.9.9,0,0,1,.41.36.94.94,0,0,1,.15.51.87.87,0,0,1-.13.46,1,1,0,0,1-.4.35,1,1,0,0,1,.53.35.93.93,0,0,1,.19.58,1.12,1.12,0,0,1-.11.5,1,1,0,0,1-.28.36,1.18,1.18,0,0,1-.42.19,2.58,2.58,0,0,1-.62.06H90.52ZM91,21.63h.83a1.85,1.85,0,0,0,.48,0,.54.54,0,0,0,.29-.19.55.55,0,0,0,.1-.34.61.61,0,0,0-.09-.34.46.46,0,0,0-.26-.2,2.18,2.18,0,0,0-.58-.05H91v1.16Zm0,1.77h1l.35,0a.82.82,0,0,0,.29-.1.56.56,0,0,0,.19-.21.67.67,0,0,0,.08-.32.63.63,0,0,0-.11-.37.58.58,0,0,0-.31-.22,1.89,1.89,0,0,0-.56-.06H91V23.4ZM98.62,20h.51v2.21a2.64,2.64,0,0,1-.13.92,1.12,1.12,0,0,1-.47.55,1.67,1.67,0,0,1-.89.21,1.82,1.82,0,0,1-.88-.19,1.06,1.06,0,0,1-.49-.54,2.57,2.57,0,0,1-.15-1V20h.51v2.21a2.16,2.16,0,0,0,.09.74.7.7,0,0,0,.32.37,1.09,1.09,0,0,0,.55.13,1.05,1.05,0,0,0,.79-.25,1.47,1.47,0,0,0,.24-1V20Zm3.45,3.83V20h.51v3.83Zm3.38,0V20H106V23.4h1.88v.45Zm5,0V20h1.32a3.2,3.2,0,0,1,.68.05,1.31,1.31,0,0,1,.56.28,1.56,1.56,0,0,1,.45.65,2.57,2.57,0,0,1,.15.91,2.68,2.68,0,0,1-.1.77,1.88,1.88,0,0,1-.26.56,1.39,1.39,0,0,1-.35.35,1.42,1.42,0,0,1-.46.19,2.6,2.6,0,0,1-.62.07h-1.38Zm.51-.45h.82a2,2,0,0,0,.59-.07.85.85,0,0,0,.34-.2,1.22,1.22,0,0,0,.28-.49,2.38,2.38,0,0,0,.1-.74,1.8,1.8,0,0,0-.2-.93,1,1,0,0,0-.48-.43,2,2,0,0,0-.66-.08H111V23.4Z"/></g></g></g></g></svg>